# xmcd CD database file
#
# Track frame offsets:
#	150
#	23447
#	56708
#	117490
#	149359
#	192517
#	224827
#
# Disc length: 4684 seconds
#
# Revision: 0
# Processed by: cddbd v1.5.2PL0 Copyright (c) Steve Scherf et al.
# Submitted via: CDex 1.51
#
DISCID=6e124a07
DTITLE=David Parsons - In Retrospect 1980-2003
DYEAR=2003
DGENRE=New Age
TTITLE0=Introspect
TTITLE1=Varuna Ghat
TTITLE2=Tibetan Plateau
TTITLE3=Dhauladhar Dreaming
TTITLE4=Whirling Into The Light
TTITLE5=Uratu to Ubud
TTITLE6=Manasarovar
EXTD=YEAR: 2003
EXTT0=
EXTT1=
EXTT2=
EXTT3=
EXTT4=
EXTT5=
EXTT6=
PLAYORDER=
